<svg width="491" height="317" viewBox="0 0 491 317" fill="none" xmlns="http://www.w3.org/2000/svg">
<g clip-path="url(#clip0_1518_39998)">
<g opacity="0.5">
<rect x="-2" y="67" width="540" height="324.878" fill="url(#paint0_linear_1518_39998)"/>
</g>
<g style="mix-blend-mode:multiply" opacity="0.05">
<path d="M197.836 -22.215L255.235 -53.5078L320.066 -45.0811L367.561 -0.162373L369.455 9.96273L379.58 64.0955L351.541 123.148L294.141 154.434L229.311 146.014L181.815 101.095L169.797 36.8372L197.836 -22.215Z" fill="#004770"/>
</g>
<path d="M308.491 -74.5801L355.986 -29.6614L263.11 20.9706L308.491 -74.5801Z" fill="#FBB900"/>
<path d="M186.262 -51.7072L243.662 -83L263.111 20.9709L186.262 -51.7072Z" fill="#FBB900"/>
<path d="M263.111 20.9707L170.242 71.6026L158.223 7.34473L263.111 20.9707Z" fill="#FBB900"/>
<path d="M368.006 34.5969L339.967 93.6556L263.111 20.9709L368.006 34.5969Z" fill="#FBB900"/>
<path d="M282.566 124.942L217.736 116.521L263.11 20.9707L282.566 124.942Z" fill="#FBB900"/>
<path d="M308.492 -74.5798L263.111 20.9709L243.662 -83L308.492 -74.5798Z" fill="white"/>
<path d="M186.262 -51.707L263.111 20.9711L158.223 7.3452L186.262 -51.707Z" fill="white"/>
<path d="M368.006 34.5968L263.111 20.9708L355.987 -29.6611L368.006 34.5968Z" fill="white"/>
<path d="M217.737 116.521L170.242 71.6027L263.111 20.9707L217.737 116.521Z" fill="white"/>
<path d="M282.567 124.942L263.111 20.9709L339.967 93.6556L282.567 124.942Z" fill="white"/>
<g style="mix-blend-mode:overlay" opacity="0.69">
<path d="M186.261 -51.7072L243.66 -83L308.491 -74.5798L355.987 -29.6611L368.012 34.5968L339.966 93.649L282.567 124.942L217.736 116.522L170.241 71.6029L158.215 7.34498L186.261 -51.7072ZM187.992 61.9268L226.41 98.2561L278.845 105.069L325.266 79.7628L347.95 32.0005L338.229 -19.9719L299.81 -56.3013L247.376 -63.1142L200.954 -37.808L178.27 9.95435L187.992 61.9268Z" fill="#424242"/>
</g>
<g style="mix-blend-mode:multiply" opacity="0.05">
<path d="M145.189 49.9199C145.189 49.9199 145.189 49.9199 145.189 49.9161C145.166 49.5734 145.131 49.2347 145.093 48.8959C145.081 48.7881 145.066 48.6841 145.054 48.5802C145.024 48.3415 144.989 48.1028 144.951 47.868C144.931 47.7563 144.916 47.6408 144.893 47.5292C144.847 47.2635 144.793 46.9979 144.739 46.7361C144.724 46.6668 144.713 46.6014 144.697 46.5321C144.628 46.2202 144.551 45.9161 144.471 45.6119C144.459 45.5657 144.448 45.5234 144.436 45.4772C144.405 45.3694 144.371 45.2655 144.34 45.1577C144.302 45.0306 144.267 44.9074 144.229 44.7842C144.202 44.6918 144.171 44.5994 144.144 44.5109C144.118 44.4262 144.087 44.3415 144.06 44.2606C144.025 44.1605 143.991 44.0643 143.956 43.9642C143.906 43.8256 143.857 43.687 143.807 43.5484C143.761 43.4252 143.711 43.302 143.665 43.1788C143.588 42.9863 143.507 42.79 143.427 42.6014C143.373 42.4782 143.319 42.355 143.265 42.2356C143.177 42.0431 143.085 41.8506 142.993 41.6581C142.939 41.5465 142.885 41.4348 142.828 41.3232C142.709 41.0884 142.582 40.8574 142.455 40.6264C142.421 40.5648 142.39 40.5032 142.355 40.4416C142.198 40.1605 142.029 39.8834 141.86 39.61C141.791 39.4984 141.718 39.3944 141.649 39.2828C141.542 39.1172 141.43 38.9478 141.319 38.7861C141.235 38.6629 141.15 38.5436 141.062 38.4243C140.954 38.278 140.847 38.1317 140.739 37.9854C140.647 37.8622 140.555 37.7428 140.459 37.6196C140.352 37.481 140.236 37.3463 140.125 37.2116C140.025 37.0922 139.929 36.9729 139.826 36.8535C139.707 36.7188 139.588 36.584 139.465 36.4531C139.284 36.2568 139.1 36.0604 138.916 35.8718C138.789 35.7409 138.662 35.61 138.532 35.483C138.405 35.3598 138.271 35.2366 138.14 35.1172C138.037 35.021 137.929 34.9209 137.822 34.8246C137.684 34.7014 137.541 34.5783 137.399 34.4589C137.296 34.3704 137.192 34.2857 137.088 34.201C136.939 34.0778 136.789 33.9584 136.635 33.8391C136.54 33.7659 136.44 33.6928 136.344 33.6196C136.179 33.4964 136.017 33.3732 135.849 33.2578C135.779 33.2077 135.71 33.1615 135.641 33.1153C135.012 32.6803 134.359 32.276 133.683 31.9065C133.622 31.8718 133.561 31.8372 133.499 31.8025C133.292 31.6909 133.084 31.5869 132.873 31.483C132.8 31.4483 132.727 31.4098 132.651 31.3752C132.436 31.2712 132.221 31.1711 132.006 31.0749C131.94 31.0479 131.879 31.021 131.814 30.994C131.58 30.8939 131.345 30.7938 131.107 30.7014C131.104 30.7014 131.096 30.6976 131.092 30.6937C130.267 30.3704 129.418 30.1009 128.551 29.8776C128.539 29.8776 128.528 29.8699 128.516 29.8699C128.251 29.8044 127.986 29.7428 127.718 29.6851C127.672 29.6735 127.622 29.6658 127.576 29.6543C127.315 29.6004 127.05 29.5503 126.785 29.5041C126.743 29.4964 126.7 29.4887 126.658 29.4849C125.476 29.2924 124.263 29.1923 123.03 29.1962C122.558 29.1962 122.082 29.2077 121.602 29.2424C116.017 29.6196 111.057 32.045 107.391 35.7332C107.379 35.7448 107.367 35.7563 107.356 35.7679C107.137 35.9911 106.922 36.2183 106.711 36.4493C106.688 36.4724 106.669 36.4955 106.646 36.5186C106.446 36.7419 106.25 36.969 106.058 37.2C106.028 37.2347 106.001 37.2693 105.97 37.3039C105.786 37.5272 105.609 37.7544 105.433 37.9854C105.398 38.0316 105.364 38.0778 105.329 38.124C105.164 38.3473 105.003 38.5744 104.841 38.8015C104.803 38.8593 104.765 38.917 104.722 38.9748C104.573 39.1981 104.427 39.4214 104.285 39.6485C104.243 39.7178 104.2 39.7871 104.158 39.8564C104.024 40.0758 103.893 40.2991 103.767 40.5263C103.721 40.6071 103.678 40.688 103.636 40.7688C103.517 40.9883 103.398 41.2077 103.287 41.431C103.241 41.5234 103.198 41.6158 103.152 41.7082C103.049 41.9238 102.945 42.1432 102.845 42.3627C102.799 42.4666 102.757 42.5706 102.711 42.6706C102.619 42.8862 102.53 43.098 102.442 43.3174C102.396 43.4329 102.358 43.5446 102.315 43.6601C102.239 43.8718 102.158 44.0835 102.085 44.2953C102.043 44.4185 102.005 44.5455 101.966 44.6687C101.901 44.8766 101.832 45.0845 101.774 45.2963C101.736 45.431 101.705 45.5657 101.667 45.7005C101.613 45.9084 101.555 46.1124 101.505 46.3203C101.471 46.4628 101.444 46.6052 101.413 46.7476C101.371 46.9517 101.325 47.1557 101.287 47.3636C101.26 47.5061 101.241 47.6485 101.218 47.791C101.129 48.3261 101.056 48.8689 101.006 49.4156C101.006 49.4348 101.003 49.4541 100.999 49.4733C100.903 50.5937 100.887 51.7371 100.968 52.8959C101.513 61.0422 106.373 67.8641 113.157 71.2789C113.31 71.3559 113.468 71.4329 113.625 71.5099C113.755 71.5715 113.886 71.6331 114.02 71.6947C114.208 71.7794 114.397 71.8603 114.589 71.9373C114.754 72.0066 114.919 72.072 115.084 72.1374C115.276 72.2106 115.464 72.2837 115.66 72.353C115.786 72.3992 115.913 72.4416 116.04 72.4839C116.235 72.5494 116.435 72.6148 116.635 72.6726C116.734 72.7034 116.834 72.7342 116.934 72.765C117.214 72.8458 117.498 72.9228 117.786 72.9921C117.898 73.0191 118.013 73.046 118.124 73.073C118.343 73.123 118.562 73.1692 118.784 73.2154C118.88 73.2347 118.976 73.2539 119.076 73.2732C119.38 73.3271 119.683 73.3771 119.99 73.4194C120.078 73.431 120.17 73.4426 120.262 73.4541C120.508 73.4849 120.758 73.5118 121.003 73.5349C121.096 73.5426 121.191 73.5542 121.284 73.5619C121.456 73.5773 121.629 73.585 121.802 73.5965C121.859 73.5965 121.917 73.6042 121.975 73.6081C122.067 73.6119 122.163 73.6196 122.255 73.6235C122.312 73.6235 122.366 73.6235 122.424 73.6235C122.666 73.6312 122.907 73.635 123.149 73.6312C123.203 73.6312 123.257 73.6312 123.307 73.6312C123.387 73.6312 123.468 73.6312 123.549 73.6273C123.886 73.6196 124.224 73.6081 124.562 73.585C124.927 73.5619 125.291 73.5272 125.652 73.4849C125.779 73.4695 125.902 73.4502 126.029 73.4348C126.263 73.4041 126.497 73.3733 126.727 73.3348C126.881 73.3078 127.03 73.277 127.18 73.2501C127.38 73.2116 127.579 73.1769 127.779 73.1346C127.944 73.0999 128.105 73.0576 128.27 73.0191C128.451 72.9767 128.631 72.9344 128.808 72.8843C128.981 72.8381 129.153 72.7881 129.322 72.738C129.487 72.6918 129.649 72.6418 129.81 72.5917C129.99 72.534 130.167 72.4724 130.347 72.4108C130.493 72.3607 130.639 72.3068 130.785 72.2529C130.881 72.2183 130.977 72.1875 131.073 72.149C131.165 72.1143 131.253 72.072 131.345 72.0374C131.476 71.9835 131.603 71.9296 131.733 71.8757C131.848 71.8256 131.964 71.7833 132.079 71.7332C132.159 71.6986 132.236 71.6562 132.317 71.6216C132.424 71.5715 132.532 71.5176 132.639 71.4676C132.846 71.3675 133.054 71.2674 133.257 71.1596C133.338 71.1172 133.418 71.0749 133.499 71.0287C133.726 70.9093 133.952 70.7861 134.171 70.6553C134.205 70.636 134.24 70.6129 134.278 70.5937C135.422 69.9199 136.501 69.1538 137.503 68.2953C138.041 67.8333 138.559 67.3444 139.05 66.8285C141.016 64.7804 142.59 62.355 143.661 59.687C143.795 59.3521 143.922 59.0171 144.037 58.6745C144.977 55.945 145.404 52.9883 145.196 49.9276L145.189 49.9199Z" fill="#004770"/>
</g>
<path d="M132.827 61.9343C141.48 53.2563 141.48 39.1865 132.827 30.5086C124.174 21.8306 110.144 21.8306 101.491 30.5086C92.8372 39.1865 92.8372 53.2563 101.491 61.9343C110.144 70.6123 124.174 70.6123 132.827 61.9343Z" fill="white"/>
<path d="M138.519 40.2889C135.901 30.7759 127.19 23.9732 117.109 24.004C113.597 26.5642 110.783 30.1022 109.201 34.1599C109.516 34.5372 109.704 34.8991 110.019 35.2764C114.883 32.1657 121.52 31.9886 127.068 33.5825C131.363 34.8183 135.237 37.236 138.527 40.2928L138.519 40.2889Z" fill="#FFC73B"/>
<path d="M132.914 61.8438C128.368 58.9564 124.526 54.841 121.005 50.687C117.262 46.2673 113.761 41.3087 110.398 36.5926C109.665 36.3424 108.725 36.8775 107.991 36.6273C104.555 42.4444 103.266 49.5012 104.417 56.1653C105.062 59.8958 106.471 63.48 108.494 66.6754C111.596 67.9998 115.047 68.6388 118.64 68.3963C124.261 68.019 129.244 65.5666 132.914 61.8438Z" fill="#FF7230"/>
<path d="M95.0859 44.2886C97.8999 40.8738 101.731 38.2559 105.931 36.9662C105.931 35.7766 106.265 34.3137 106.668 33.1933C105.297 31.9883 103.908 30.7718 102.295 29.9171C102.257 29.8979 102.215 29.8786 102.173 29.8594C98.1916 33.536 95.5696 38.6332 95.0859 44.2886Z" fill="#00A0FF"/>
<path d="M112.837 35.4804C112.971 37.4939 111.251 39.2494 108.994 39.4034C106.737 39.5536 104.798 38.0444 104.664 36.031C104.529 34.0175 106.249 32.2619 108.506 32.108C110.764 31.9578 112.702 33.467 112.837 35.4804Z" fill="white"/>
<g style="mix-blend-mode:multiply">
<path d="M137.809 38.1484C134.677 52.8317 122.396 64.3466 106.875 65.9097C110.376 67.7538 114.411 68.6816 118.645 68.3967C130.857 67.5767 140.089 56.9819 139.272 44.7355C139.118 42.414 138.611 40.2042 137.813 38.1445L137.809 38.1484Z" fill="#EDE7DD"/>
</g>
</g>
<defs>
<linearGradient id="paint0_linear_1518_39998" x1="82.878" y1="187" x2="516.78" y2="135.049" gradientUnits="userSpaceOnUse">
<stop stop-color="#EBEFF6"/>
<stop offset="1" stop-color="#D9D9D9" stop-opacity="0"/>
</linearGradient>
<clipPath id="clip0_1518_39998">
<rect width="547" height="397" fill="white" transform="translate(0 -80)"/>
</clipPath>
</defs>
</svg>
