<svg width="48" height="34" viewBox="0 0 48 34" fill="none" xmlns="http://www.w3.org/2000/svg">
<g clip-path="url(#clip0_1425_2693)">
<path d="M42.8032 23.0992C43.1065 22.2138 43.4099 21.3121 43.7132 20.3857C45.2135 15.7619 46.6399 10.7283 47.8614 5.91598C48.5911 3.04664 46.4186 0.259277 43.4591 0.259277C41.2538 0.259277 39.3764 1.84151 38.9829 4.01402C38.5402 6.50625 38.0647 8.95748 37.5728 11.2858C37.3597 12.2777 37.1465 13.2533 36.9333 14.1961C36.4988 16.0817 36.0561 17.8606 35.6134 19.4675C35.2773 20.6726 34.9412 21.7875 34.6133 22.7959C35.9578 22.8697 37.3105 22.9353 38.655 22.9845C40.0322 23.0419 41.4177 23.0747 42.795 23.0992" fill="#00B5ED"/>
<path d="M33.8919 22.7549C32.3096 18.1476 30.3995 11.1956 28.8008 3.84186C28.3499 1.75953 26.5054 0.259277 24.3657 0.259277H23.6524C21.5127 0.259277 19.6681 1.75134 19.2172 3.83366C18.3564 7.80975 17.3972 11.6547 16.4545 15.0897C15.897 17.1146 15.3395 18.992 14.8066 20.6644C17.1431 21.0497 21.816 21.6482 21.816 21.6482C23.3901 16.4588 24.0049 13.3845 24.0049 13.3845C24.0049 13.3845 24.6034 16.4834 26.366 22.1319C28.8664 22.3778 31.3832 22.6074 33.8919 22.7467V22.7549Z" fill="#00B5ED"/>
<path d="M12.6258 20.3119C12.052 18.3115 11.4863 16.0079 10.9288 13.532C10.8633 13.2205 10.6583 12.2859 10.6583 12.2859C10.0926 9.65432 9.54335 6.85057 9.03507 4.01402C8.64976 1.84151 6.76419 0.259277 4.5589 0.259277C1.58298 0.259277 -0.589525 3.05484 0.140108 5.94058C1.00911 9.35099 1.97649 12.8352 3.00945 16.2128C3.239 16.967 3.47674 17.7131 3.70629 18.4591" fill="#00B5ED"/>
<path d="M42.8021 23.0993C41.4166 27.1164 39.9737 30.6416 38.5801 33.7487H30.3491C28.9882 30.2973 27.5618 25.9933 26.3894 22.1811L26.373 22.1401C28.8735 22.3861 31.3903 22.6156 33.8989 22.7632C34.0219 23.1403 34.1449 23.4764 34.2678 23.8126C34.3826 23.4928 34.5056 23.1567 34.6204 22.8042C35.9894 22.878 37.3257 22.9436 38.662 22.9927C40.0393 23.0501 42.8021 23.1075 42.8021 23.1075" fill="#0080C7"/>
<path d="M14.8065 20.6638C14.4376 21.8197 14.0851 22.8773 13.749 23.8037C13.3718 22.7789 13.0029 21.6148 12.634 20.3113C12.634 20.2703 6.5674 19.0734 3.72266 18.4585C3.72266 18.4585 6.37065 27.0091 9.51053 33.7398H17.7414C20.537 26.1811 21.8241 21.6476 21.8241 21.6476" fill="#0080C7"/>
</g>
<defs>
<clipPath id="clip0_1425_2693">
<rect width="48" height="33.4811" fill="white" transform="translate(0 0.259277)"/>
</clipPath>
</defs>
</svg>
